<?xml version="1.0" encoding="UTF-8"?>
<svg xmlns="http://www.w3.org/2000/svg" xmlns:xlink="http://www.w3.org/1999/xlink" width="100.000mm" height="84.554mm" viewBox="152.000000 -244.276825 100.000000 84.553650">
    <path transform="matrix(1,0,0,-1,0,0)" style="stroke:none;fill:#000000;fill-rule:evenodd" d="M166.107544,159.723175L166.512527,159.738388C173.167053,160.074997,178.626556,165.126114,179.478485,171.734451L243.180405,171.734451L249.51358,160.765198L252,160.765198L245.666824,171.734451L245.687912,171.734451L225.518723,206.692368L226.233215,207.044113C232.821609,210.313583,238.498779,215.162659,242.758255,221.158768C247.585388,227.908539,250.22139,235.97908,250.30899,244.276825L159.031952,244.276825C159.125549,235.643097,161.973083,227.264603,167.159775,220.361832C171.30632,214.792801,176.69545,210.268356,182.898285,207.148621L170.883331,186.338181L170.545471,186.471359C163.634979,189.003387,155.95433,185.664108,153.092697,178.883469C150.159714,171.949249,153.32991,163.944794,160.215424,160.899261C162.069,160.078445,164.080902,159.67688,166.107544,159.723175zM165.390778,162.819489C160.535172,163.111603,156.490662,166.648071,155.55275,171.421173C154.614853,176.19426,157.020508,180.998184,161.404541,183.105865C166.539597,185.578232,172.710785,183.581772,175.424683,178.57016C178.237122,173.383942,176.311829,166.900223,171.12471,164.089417C169.369934,163.137756,167.38327,162.697723,165.390778,162.819489zM179.373749,175.97316C178.662811,179.927612,176.258301,183.373459,172.792023,185.405228L184.815033,206.230011L185.156586,206.075317C192.027374,203.035751,199.515945,201.651749,207.019257,202.034775C212.700195,202.285156,218.289627,203.556168,223.520172,205.787003L240.733307,175.97316L179.373749,175.97316z"/>
</svg>
