<?xml version="1.0" encoding="UTF-8"?>
<svg xmlns="http://www.w3.org/2000/svg" xmlns:xlink="http://www.w3.org/1999/xlink" width="187.236mm" height="169.642mm" viewBox="123.374405 -294.431244 187.235672 169.642395">
    <path transform="matrix(1,0,0,-1,0,0)" style="stroke:none;fill:#000000;fill-rule:evenodd" d="M261.579926,124.794029L262.780365,124.832848C273.239075,125.269203,283.293762,128.993347,291.513275,135.475189C273.59845,124.026115,249.928589,127.960045,236.680267,144.58847C222.406281,162.524048,225.36676,188.63414,243.294037,202.918549C261.229706,217.192474,287.339783,214.231964,301.624359,196.304779C306.950256,189.614227,310.077393,181.440781,310.577484,172.9039C311.10083,186.569427,305.998291,199.850922,296.463379,209.654297C286.928467,219.457687,273.793762,224.926971,260.118988,224.783295L260.550385,225.512299C274.128174,249.125885,266.312775,279.260651,242.970062,293.29892C242.379028,293.657043,241.779053,294.000275,241.170746,294.328217C258.020203,282.404083,263.549194,259.90976,254.147308,241.533295C243.697449,221.131027,218.68988,213.056091,198.281586,223.494232C178.231873,233.763885,170.0271,258.14856,179.790619,278.449554C182.877213,284.852417,187.556213,290.355347,193.379486,294.431244C172.535843,283.139374,162.477631,258.769958,169.28891,236.063812C170.448669,232.204254,172.07132,228.499237,174.121429,225.029633L173.289642,225.038666C146.054306,224.984085,123.867645,203.151443,123.375092,175.920502C123.331543,173.546585,123.458588,171.172684,123.755219,168.816986C122.926239,189.967361,138.141647,208.356079,159.073334,211.501068C181.743118,214.894638,202.874817,199.275711,206.282074,176.608002C209.675552,153.938309,194.056656,132.806747,171.389008,129.399506C161.150833,127.869545,150.710541,130.217545,142.113129,135.98349C162.686417,119.514381,192.507874,121.832176,210.289398,141.282318C212.838867,144.074234,215.061584,147.147797,216.914398,150.443451L217.075043,150.151215C226.121887,134.161346,243.211884,124.424095,261.579926,124.794029zM215.895416,190.674591C210.961914,191.28035,207.453568,195.770828,208.059326,200.704346C208.665085,205.637848,213.155563,209.146194,218.089081,208.540436C223.022583,207.934677,226.53093,203.444199,225.925171,198.510681C225.319412,193.577179,220.828934,190.068832,215.895416,190.674591zM216.54306,200.267426L216.435394,200.446869L216.499115,200.44516L217.681732,200.442963L217.156097,199.549652L217.054047,199.365326L216.54306,200.267426z"/>
</svg>
