<?xml version="1.0" encoding="utf-8"?>
<!-- Generator: Adobe Illustrator 27.9.1, SVG Export Plug-In . SVG Version: 6.00 Build 0)  -->
<svg version="1.1" id="Layer_1" xmlns="http://www.w3.org/2000/svg" xmlns:xlink="http://www.w3.org/1999/xlink" x="0px" y="0px"
	 viewBox="0 0 563.5 390.5" style="enable-background:new 0 0 563.5 390.5;" xml:space="preserve">
<style type="text/css">
	.st0{fill-rule:evenodd;clip-rule:evenodd;}
</style>
<path class="st0" d="M481,335.1c23-47.6,42.1-98.7,67-144.5c19.7-10.8,20.5-46.5,0.9-61.7c-8-7.2-18.4-11.1-29.1-11.1
	c6.2-22.2-13-45.6-35.7-45.3c-0.2-19.2-15-35.1-34.1-36.8c0.9-40.2-65.5-50.6-66.6-6.1C382.8,31.3-1.6,243.4,0,245.8
	c5.1,40.6,10.3,81.1,15.4,121.7C170.6,356.7,325.8,345.9,481,335.1z M376.9,43.2c53.2,40.3,97.7,94.3,131.8,152.2
	c0,0-507,52.1-507,52.1L376.9,43.2z M470.5,322.2c11-38.1,22-76.3,33-114.4c-164.4,15.9-328.9,31.7-493.3,47.6
	c3.5,35.2,7,70.4,10.5,105.6C170.7,348,320.6,335.1,470.5,322.2z"/>
<path class="st0" d="M673.6,217.4"/>
</svg>
