<?xml version="1.0" encoding="UTF-8"?>
<svg xmlns="http://www.w3.org/2000/svg" xmlns:xlink="http://www.w3.org/1999/xlink" width="100.000mm" height="62.115mm" viewBox="133.500000 -293.066528 100.000000 62.114838">
    <path transform="matrix(1,0,0,-1,0,0)" style="stroke:none;fill:#000000;fill-rule:evenodd" d="M171.406708,274.603882L171.732742,274.468903L171.940109,274.969879L178.224869,259.807434L177.640198,259.565094L171.406708,274.603882z"/>
    <path transform="matrix(1,0,0,-1,0,0)" style="stroke:none;fill:#000000;fill-rule:evenodd" d="M195.066971,274.603882L194.740936,274.468903L194.533569,274.969879L188.24881,259.807434L188.833481,259.565094L195.066971,274.603882z"/>
    <path transform="matrix(1,0,0,-1,0,0)" style="stroke:none;fill:#000000;fill-rule:evenodd" d="M211.024811,257.001862L210.706924,257.155029L210.942276,257.643494L195.448853,252.225723L195.657776,251.628296L211.024811,257.001862z"/>
    <path transform="matrix(1,0,0,-1,0,0)" style="stroke:none;fill:#000000;fill-rule:evenodd" d="M155.448868,256.475555L155.766754,256.628723L155.531403,257.117188L171.024811,251.699417L170.815918,251.10199L155.448868,256.475555z"/>
    <path transform="matrix(1,0,0,-1,0,0)" style="stroke:none;fill:#000000;fill-rule:evenodd" d="M153.745193,276.440613L154.360962,276.440613L154.360962,277.38678L174.614029,257.133698L173.833069,256.352753L153.745193,276.440613z"/>
    <path transform="matrix(1,0,0,-1,0,0)" style="stroke:none;fill:#000000;fill-rule:evenodd" d="M212.169449,275.394287L211.584442,275.394287L211.584442,276.293152L192.343185,257.05188L193.085129,256.309937L212.169449,275.394287z"/>
    <path transform="matrix(1,0,0,-1,0,0)" style="stroke:none;fill:#000000;fill-rule:evenodd" d="M183.663513,245.681656L183.823883,245.693863C185.496948,245.865417,186.741638,247.31839,186.654755,248.997986C186.583771,250.376099,185.626526,251.548645,184.290436,251.893753L184.290436,293.066528L182.711487,293.066528L182.711487,251.893753L182.56192,251.851349C180.954498,251.35022,180.022339,249.676666,180.442535,248.046219C180.81778,246.592697,182.164337,245.604248,183.663513,245.681656z"/>
    <path transform="matrix(1,0,0,-1,0,0)" style="stroke:none;fill:#000000;fill-rule:evenodd" d="M233.5,247.793793L193.675262,247.793793L183.5,237.61853L173.324738,247.793793L133.5,247.793793L133.5,230.951691L233.5,230.951691L233.5,247.793793z"/>
</svg>
