<?xml version="1.0" encoding="UTF-8"?>
<svg xmlns="http://www.w3.org/2000/svg" xmlns:xlink="http://www.w3.org/1999/xlink" width="100.000mm" height="100.009mm" viewBox="111.716782 -173.905457 100.000000 100.009399">
    <path transform="matrix(1,0,0,-1,0,0)" style="stroke:none;fill:#000000;fill-rule:evenodd" d="M142.047455,87.545128L141.992783,87.599792L211.023422,156.630432L211.038071,156.642456C211.377655,156.947113,211.598221,157.362396,211.661133,157.81427C211.74176,158.271301,211.735275,158.739502,211.641998,159.194122C211.503128,159.998016,211.2491,160.777725,210.887833,161.509155C210.272705,162.83371,209.507202,164.083115,208.606461,165.232666C206.578796,167.897736,204.105408,170.191895,201.295654,172.013733C200.254547,172.676788,199.137512,173.212219,197.968536,173.60849C197.363785,173.796326,196.73526,173.896286,196.102081,173.905457C195.678375,173.894333,195.263214,173.784775,194.889221,173.585358C194.815781,173.541214,194.745331,173.492249,194.678696,173.43837L194.630402,173.486664L125.364723,104.227844L111.716782,73.896057L142.047455,87.545128zM114.266563,77.120461L118.343872,86.182083L118.343872,86.15625L121.841225,86.15625L121.841225,84.260239L124.11644,84.260239L124.11644,81.202866L114.508003,76.879013L113.915596,76.528053L114.266563,77.120461zM114.864014,78.128937L125.882217,102.616333L125.882217,102.546524L135.333176,102.546524L135.333176,97.42289L141.481537,97.42289L141.481537,89.160896L115.516479,77.476479L113.915588,76.528053L114.864014,78.128937zM185.046112,162.887253L195.250977,173.091003L195.354309,173.143799C195.413315,173.18071,195.470215,173.220932,195.524796,173.26413L195.613861,173.311523C195.885071,173.4431,196.188065,173.495056,196.48761,173.461273C197.084625,173.425995,197.672058,173.294846,198.227341,173.072739C199.352936,172.64975,200.421448,172.088165,201.408234,171.401062C204.341492,169.40715,206.868561,166.873337,208.854645,163.934753C209.479599,162.984543,210.009171,161.975006,210.43576,160.920731C210.646515,160.360107,210.783646,159.774551,210.843552,159.178619C210.868011,158.868744,210.824448,158.557312,210.71608,158.265976C210.657166,158.151321,210.576035,158.049576,210.477661,157.966263L200.222137,147.711349L185.046112,162.887253zM142.506271,99.472351L136.35791,99.472351L136.35791,104.595985L126.772972,104.595985L126.792488,104.639389L136.05719,113.902847L183.812469,161.65625L198.989883,146.478973L142.506271,89.995239L142.506271,99.472351zM143.509277,113.516975L142.717072,114.309174L180.214508,151.80661L181.006714,151.014404L143.509277,113.516975z"/>
</svg>
