<?xml version="1.0" encoding="UTF-8"?>
<svg xmlns="http://www.w3.org/2000/svg" xmlns:xlink="http://www.w3.org/1999/xlink" width="100.000mm" height="124.130mm" viewBox="201.132782 -284.108002 100.000000 124.130066">
    <path transform="matrix(1,0,0,-1,0,0)" style="stroke:none;fill:#000000;fill-rule:evenodd" d="M238.96756,164.573456L213.754181,164.573456C211.225418,164.57193,208.79982,165.575836,207.011719,167.363953C205.223633,169.152054,204.219727,171.577667,204.221344,174.106415L204.221344,269.979523C204.219788,272.508301,205.223633,274.933899,207.011719,276.722046C208.799805,278.510132,211.225418,279.514038,213.754181,279.512512L258.336609,279.512512L258.336609,249.085159L281.302612,249.085159L281.468628,248.860077L281.468628,201.430496L284.55719,201.430496L284.55719,251.004456L260.147949,284.108002L211.427963,284.108002C208.697021,284.109619,206.077515,283.025391,204.146454,281.094299C202.215393,279.163269,201.131195,276.543762,201.132782,273.812805L201.132782,170.273117C201.131195,167.542175,202.215393,164.922668,204.146454,162.991608C206.077515,161.060547,208.697021,159.976318,211.427963,159.977936L238.96756,159.977936L238.96756,164.573456zM258.834534,279.512512L258.866852,279.512512L259.785278,278.266968L258.834534,279.512512zM281.204987,250.317627L259.855042,279.395935L259.815643,279.395935L259.815643,250.264008L281.204987,250.264008L281.204987,250.317627z"/>
    <path transform="matrix(1,0,0,-1,0,0)" style="stroke:none;fill:#000000;fill-rule:evenodd" d="M279.838135,189.789673L277.00296,189.789673L271.332672,174.539932C270.908417,173.410446,270.530975,172.263931,270.201355,171.103256L270.087128,171.507813C269.789978,172.528793,269.460388,173.539948,269.098846,174.539932L263.643341,189.789673L260.636353,189.789673L268.769562,168.797913L271.618958,168.797913L279.838135,189.789673z"/>
    <path transform="matrix(1,0,0,-1,0,0)" style="stroke:none;fill:#000000;fill-rule:evenodd" d="M293.012146,168.452805L293.579559,168.491394C295.111328,168.635681,296.604797,169.05368,297.988922,169.72551C299.10907,170.268723,300.163788,170.937531,301.132782,171.71907L301.132782,179.50856L292.240753,179.494232L292.240753,177.031418L298.412201,177.031418L298.412201,173.12233C297.973846,172.749985,297.49234,172.431686,296.978027,172.174255C296.192719,171.762573,295.36319,171.441483,294.505371,171.217117C292.615662,170.739243,290.621735,170.890305,288.825562,171.64743C288.199738,171.902512,287.617188,172.253052,287.098694,172.686493C286.250458,173.419571,285.60321,174.356812,285.218109,175.409714C284.838806,176.459366,284.62854,177.562531,284.595154,178.678116C284.531311,179.821335,284.631683,180.96788,284.89325,182.082611C285.039551,182.696533,285.24472,183.294907,285.50589,183.869431C285.903748,184.721466,286.46814,185.485123,287.165924,186.115479C288.111755,186.903458,289.250549,187.424759,290.465088,187.625702C291.554291,187.818176,292.668488,187.820602,293.758514,187.632858C294.667603,187.468414,295.529968,187.108078,296.285797,186.576828C296.771667,186.224152,297.176849,185.771957,297.474304,185.250458C297.835114,184.614319,298.116425,183.936264,298.31192,183.231522L300.817719,183.918823C300.619476,184.729385,300.325439,185.513519,299.941895,186.254593C299.612549,186.89679,299.177887,187.479309,298.656006,187.977829C298.104248,188.48764,297.474518,188.905869,296.790619,189.216721C295.700134,189.711365,294.531372,190.010803,293.337372,190.101471C291.858246,190.230621,290.36792,190.108368,288.929626,189.739899C287.709503,189.42865,286.562164,188.881424,285.552399,188.12915C284.55484,187.351868,283.739166,186.366074,283.162323,185.240662C282.138855,183.255753,281.642578,181.041046,281.721252,178.809189C281.748077,177.115067,282.132355,175.445663,282.848907,173.910309C283.725647,172.01355,285.245575,170.48793,287.139038,169.604095C288.676331,168.870071,290.353455,168.474823,292.056763,168.445145C292.375214,168.436279,292.693878,168.438828,293.012146,168.452805z"/>
    <path transform="matrix(1,0,0,-1,0,0)" style="stroke:none;fill:#000000;fill-rule:evenodd" d="M251.681229,168.452805C252.719315,168.492538,253.743988,168.701126,254.714996,169.070374C255.598389,169.398331,256.406403,169.901596,257.090332,170.549789C258.118591,171.547333,258.751343,172.88269,258.872131,174.310196C258.935272,175.115814,258.823975,175.925568,258.545898,176.684296C258.151886,177.695251,257.4534,178.558685,256.547058,179.155167C255.785583,179.669037,254.947098,180.058533,254.063248,180.308975C252.805023,180.685806,251.532074,181.011993,250.247665,181.286713L249.854568,181.381973C249.031494,181.57341,248.223602,181.824966,247.437363,182.134644C247.088104,182.265717,246.762299,182.452362,246.472565,182.687347C245.93779,183.155914,245.638672,183.838043,245.656311,184.548828C245.656586,185.306824,245.977203,186.029648,246.53891,186.53862C246.971344,186.952759,247.501099,187.251373,248.0793,187.406891C248.862488,187.616455,249.671204,187.714813,250.481796,187.699081C251.276733,187.716034,252.069427,187.607437,252.830521,187.377365C253.633362,187.139099,254.332504,186.63681,254.814529,185.951981C255.219223,185.34256,255.47554,184.646774,255.562912,183.920456L255.593704,183.6754L258.257111,183.875839C258.230652,184.759354,258.0242,185.628204,257.65036,186.429153C257.047852,187.710861,256.000824,188.730652,254.703674,189.299164C253.857925,189.678268,252.960159,189.928619,252.040283,190.041901C250.812012,190.207825,249.565445,190.183105,248.344727,189.968628C247.490631,189.819077,246.664413,189.539551,245.894958,189.139816C244.596329,188.469101,243.625168,187.299866,243.204163,185.900192C242.880722,184.842194,242.902634,183.708694,243.266754,182.663971C243.547928,181.894394,244.022614,181.210175,244.64502,180.677322C245.360199,180.07576,246.18335,179.615814,247.070511,179.322067C247.919418,179.030792,248.781708,178.780258,249.654495,178.571289L250.70047,178.316803C251.689758,178.09024,252.668259,177.818878,253.632935,177.503571C254.157471,177.323227,254.652588,177.066711,255.102448,176.742233C255.813812,176.217789,256.226624,175.380585,256.209503,174.496948C256.201141,173.484039,255.699493,172.538864,254.865295,171.964249C254.252289,171.550583,253.563599,171.26236,252.838684,171.116089C251.404999,170.818512,249.920578,170.875412,248.513885,171.281845C247.800079,171.493774,247.12912,171.829575,246.531631,172.273911C245.942322,172.725143,245.489334,173.330673,245.22287,174.023407C245.004654,174.584763,244.861542,175.172455,244.797211,175.771286L242.176788,175.542175C242.19783,173.863373,242.819489,172.247437,243.929047,170.987396C244.724167,170.113602,245.728073,169.455887,246.846695,169.075897C247.893997,168.722366,248.985809,168.518127,250.090073,168.469147C250.619888,168.437866,251.150894,168.432404,251.681229,168.452805z"/>
</svg>
